<?xml version="1.0" encoding="UTF-8" standalone="no"?>
<!-- Created with Inkscape (http://www.inkscape.org/) -->

<svg
   width="96.792168mm"
   height="96.173187mm"
   viewBox="0 0 96.792168 96.173187"
   version="1.1"
   id="svg5"
   inkscape:version="1.1.1 (3bf5ae0d25, 2021-09-20)"
   sodipodi:docname="play2.svg"
   xmlns:inkscape="http://www.inkscape.org/namespaces/inkscape"
   xmlns:sodipodi="http://sodipodi.sourceforge.net/DTD/sodipodi-0.dtd"
   xmlns="http://www.w3.org/2000/svg"
   xmlns:svg="http://www.w3.org/2000/svg">
  <sodipodi:namedview
     id="namedview7"
     pagecolor="#ffffff"
     bordercolor="#666666"
     borderopacity="1.0"
     inkscape:pageshadow="2"
     inkscape:pageopacity="0.0"
     inkscape:pagecheckerboard="0"
     inkscape:document-units="mm"
     showgrid="false"
     inkscape:zoom="0.64052329"
     inkscape:cx="-206.86211"
     inkscape:cy="395.77015"
     inkscape:window-width="1024"
     inkscape:window-height="1089"
     inkscape:window-x="1016"
     inkscape:window-y="-8"
     inkscape:window-maximized="0"
     inkscape:current-layer="layer1"
     fit-margin-top="0"
     fit-margin-left="0"
     fit-margin-right="0"
     fit-margin-bottom="0" />
  <defs
     id="defs2" />
  <g
     inkscape:label="Layer 1"
     inkscape:groupmode="layer"
     id="layer1"
     transform="translate(-41.110255,-43.793197)">
    <path
       style="fill:none;fill-rule:evenodd;stroke:#000000;stroke-width:0.264583px;stroke-linecap:butt;stroke-linejoin:miter;stroke-opacity:1"
       d="M 40.894299,141.72044 140.8943,91.720441 40.894298,41.720447 Z"
       id="path459" />
    <path
       style="fill:#ffffff;fill-opacity:1;stroke:#000000;stroke-width:1.56122;stroke-miterlimit:4;stroke-dasharray:6.24489, 12.4898;stroke-dashoffset:0;stroke-opacity:1"
       d="m 156.12235,346.59161 c 0,-102.18207 0.35049,-185.78559 0.77886,-185.78559 1.53598,0 370.79233,185.01599 370.79233,185.78559 0,0.76961 -369.25635,185.7856 -370.79233,185.7856 -0.42837,0 -0.77886,-83.60352 -0.77886,-185.7856 z"
       id="path738"
       transform="scale(0.26458333)" />
    <path
       style="fill:#f9f9f9;fill-opacity:1;stroke:#000000;stroke-width:1.56122;stroke-miterlimit:4;stroke-dasharray:6.24489, 12.4898;stroke-dashoffset:0;stroke-opacity:1"
       d="m 159.19328,529.71045 c -2.13315,-0.49391 -2.4016,-20.58437 -2.46917,-184.78624 -0.0417,-101.32765 0.44384,-183.39126 1.07899,-182.36357 0.63514,1.02768 2.49197,1.96702 4.12629,2.08743 4.25825,0.31371 12.92764,4.10568 12.92764,5.65452 0,0.7214 2.69958,2.03856 5.99907,2.92702 3.2995,0.88847 7.6223,3.0232 9.60623,4.74385 1.98393,1.72066 4.02656,3.18222 4.53918,3.24791 4.64718,0.5956 7.47603,1.74817 12.38672,5.0468 3.14533,2.11279 7.52123,4.2545 9.72424,4.75936 2.203,0.50486 5.64761,2.34216 7.65469,4.08289 2.00708,1.74073 4.8488,3.16496 6.31493,3.16496 1.46614,0 5.34923,1.82109 8.62909,4.04686 3.27986,2.22578 7.35225,4.31434 9.04976,4.64125 1.69751,0.32691 5.61062,2.28892 8.6958,4.36003 3.08518,2.07111 7.41188,4.17873 9.61488,4.68359 2.203,0.50486 5.64762,2.34216 7.65469,4.08289 2.00708,1.74073 4.8488,3.16496 6.31494,3.16496 1.46613,0 5.37936,1.84154 8.69605,4.09231 3.31669,2.25076 6.75185,4.19924 7.63367,4.32993 3.58226,0.53094 11.75128,4.53367 11.75128,5.758 0,0.7214 2.69959,2.03856 5.99908,2.92702 3.29949,0.88846 7.62228,3.0232 9.60622,4.74385 1.98393,1.72066 4.80671,3.12846 6.27284,3.12846 1.46615,0 5.37937,1.84154 8.69606,4.09231 3.3167,2.25077 6.75184,4.19924 7.63367,4.32994 3.58226,0.53093 11.75128,4.53367 11.75128,5.758 0,0.7214 2.69959,2.03856 5.99908,2.92702 3.29949,0.88846 7.62228,3.02319 9.60622,4.74385 1.98393,1.72065 4.02657,3.18221 4.53918,3.24791 4.64719,0.59559 7.47603,1.74817 12.38672,5.04679 3.14533,2.11279 7.52124,4.25451 9.72424,4.75937 2.20301,0.50486 5.64761,2.34216 7.65469,4.08289 2.00708,1.74073 4.8488,3.16496 6.31493,3.16496 1.46615,0 5.37937,1.84154 8.69606,4.09231 5.32292,3.61223 7.86565,4.71489 11.8887,5.15558 0.59976,0.0657 2.98564,1.87583 5.30195,4.02251 2.31631,2.14668 5.56017,3.90306 7.20857,3.90306 3.70633,0 8.31105,2.39676 12.33431,6.42001 1.68367,1.68367 3.71751,2.65561 4.51965,2.15986 1.82761,-1.12953 10.42369,3.20922 11.24605,5.67628 0.33588,1.00765 2.02326,1.93615 3.7497,2.06335 4.89163,0.36036 13.1476,4.18974 12.23086,5.67305 -0.45353,0.73383 1.13614,1.77142 3.5326,2.30575 8.56161,1.90891 9.96569,2.52782 12.91405,5.69252 1.64281,1.76335 4.69321,3.3934 6.77866,3.62232 2.08545,0.22892 5.26804,1.20632 7.07244,2.172 3.22398,1.72542 3.22937,1.8071 0.31221,4.72427 -4.05203,4.05203 -9.20683,6.6617 -10.98628,5.56193 -0.80961,-0.50037 -2.84957,0.46779 -4.53324,2.15146 -4.02325,4.02326 -8.62797,6.42002 -12.3343,6.42002 -1.6484,0 -4.89227,1.75637 -7.20858,3.90306 -2.3163,2.14668 -4.70218,3.9616 -5.30194,4.03315 -0.59976,0.0715 -2.77609,0.31315 -4.83627,0.53688 -2.06017,0.22372 -4.5191,1.45552 -5.46428,2.73732 -2.31877,3.14463 -7.84224,5.96305 -11.68624,5.96305 -1.73113,0 -3.70933,0.95127 -4.396,2.11392 -1.59677,2.70362 -7.6644,5.90023 -12.12994,6.39042 -1.90732,0.20938 -4.93586,1.84868 -6.73009,3.64291 -1.79422,1.79422 -5.75787,3.95132 -8.8081,4.79352 -3.05022,0.8422 -6.64021,2.62563 -7.97774,3.96318 -1.33755,1.33753 -5.21047,3.18007 -8.60653,4.09454 -3.39605,0.91446 -6.17463,2.2529 -6.17463,2.97429 0,1.22434 -8.16903,5.22707 -11.75129,5.758 -0.88182,0.13067 -4.31697,2.07917 -7.63366,4.32994 -3.3167,2.25077 -7.22992,4.09231 -8.69606,4.09231 -1.46613,0 -4.30786,1.42423 -6.31493,3.16496 -2.00708,1.74073 -5.45169,3.57803 -7.6547,4.0829 -2.20299,0.50485 -6.52969,2.61247 -9.61487,4.68357 -3.0852,2.07112 -6.99829,4.03313 -8.6958,4.36005 -1.69751,0.3269 -5.7699,2.41546 -9.04977,4.64123 -3.27985,2.22578 -7.16294,4.04687 -8.62908,4.04687 -1.46613,0 -4.30786,1.42422 -6.31493,3.16496 -2.00708,1.74073 -5.45169,3.57802 -7.6547,4.08289 -2.20299,0.50485 -6.57891,2.64657 -9.72423,4.75936 -4.91069,3.29863 -7.73954,4.4512 -12.38672,5.0468 -0.51262,0.0657 -2.55525,1.52725 -4.53919,3.2479 -1.98393,1.72066 -6.30673,3.8554 -9.60622,4.74386 -3.29949,0.88846 -5.99907,2.20562 -5.99907,2.92701 0,1.22434 -8.16903,5.22707 -11.75128,5.758 -0.88183,0.13067 -4.31698,2.07917 -7.63368,4.32994 -3.31669,2.25077 -7.22991,4.09231 -8.69605,4.09231 -1.46613,0 -4.30785,1.42423 -6.31493,3.16496 -2.00708,1.74073 -5.45169,3.57803 -7.65469,4.0829 -2.20301,0.50485 -6.52971,2.61247 -9.61489,4.68357 -3.08518,2.07112 -6.99829,4.03313 -8.69579,4.36005 -1.69751,0.3269 -5.7699,2.41546 -9.04976,4.64123 -3.27987,2.22578 -7.16295,4.04687 -8.62909,4.04687 -1.46613,0 -4.28892,1.4078 -6.27285,3.12845 -1.98393,1.72066 -6.27707,3.84741 -9.5403,4.72611 -3.26324,0.8787 -6.35865,2.28608 -6.87869,3.12753 -1.48491,2.40263 -9.08378,5.69799 -11.72761,5.08583 z"
       id="path777"
       transform="scale(0.26458333)" />
    <path
       style="fill:#f9f9f9;fill-opacity:1;stroke:#000000;stroke-width:1.56122;stroke-miterlimit:4;stroke-dasharray:6.24489, 12.4898;stroke-dashoffset:0;stroke-opacity:1"
       d="m 159.8865,527.19708 c -0.5844,-1.87362 -1.68669,-3.8094 -2.44952,-4.30171 -0.78868,-0.50898 -0.57071,-4.43138 0.50531,-9.09294 1.48224,-6.42141 1.48224,-8.45128 0,-9.36734 -1.48223,-0.91608 -1.48223,-2.94595 0,-9.36735 1.49257,-6.46616 1.48659,-8.44857 -0.0283,-9.38485 -1.46682,-0.90654 -1.52956,-2.93196 -0.26552,-8.57237 0.91031,-4.06196 1.2001,-8.12158 0.64398,-9.0214 -1.53962,-2.49115 -1.74674,-232.56915 -0.21332,-236.96815 0.87271,-2.50361 0.66285,-5.10781 -0.60209,-7.47137 -1.51797,-2.83635 -1.53695,-4.74763 -0.087,-8.75746 2.32537,-6.43069 2.36958,-10.37186 0.11634,-10.37186 -1.10361,0 -1.38866,-1.71032 -0.78061,-4.68367 l 1.91562,-9.36734 c 0.65025,-3.17971 0.34269,-4.68368 -0.95781,-4.68368 -1.30049,0 -1.60806,-1.50396 -0.95781,-4.68367 l 1.91562,-9.36734 c 0.60805,-2.97335 0.323,-4.68367 -0.78061,-4.68367 -0.95613,0 -1.73842,-1.41507 -1.73842,-3.1446 0,-2.99497 0.29285,-2.9508 6.15478,0.92845 3.38513,2.24017 6.84124,3.64878 7.68025,3.13025 0.83901,-0.51854 2.4603,-0.0294 3.60287,1.08697 4.13573,4.04092 9.85845,7.36627 12.67689,7.36627 1.58358,0 5.18197,1.75638 7.99641,3.90306 2.81445,2.14668 6.3272,3.90306 7.80612,3.90306 1.47892,0 5.12125,1.85521 8.09407,4.12269 2.97281,2.26748 7.09927,4.30866 9.1699,4.53596 2.07062,0.22729 5.30679,1.84987 7.19147,3.60572 1.88468,1.75584 5.55873,3.66072 8.16454,4.23305 2.60582,0.57234 7.5165,3.05345 10.91263,5.5136 3.39613,2.46014 6.78542,4.09558 7.53177,3.63431 0.74635,-0.46127 3.84032,1.05544 6.87548,3.37047 3.03516,2.31504 7.21263,4.39512 9.28326,4.62242 2.07062,0.2273 5.30679,1.84987 7.19147,3.60572 1.88468,1.75585 5.60802,3.67155 8.27409,4.25712 2.66607,0.58557 7.02838,2.72819 9.69404,4.76138 2.66565,2.03319 6.31088,3.69671 8.10051,3.69671 1.78963,0 4.18224,0.92498 5.31692,2.0555 3.87192,3.85777 10.50978,7.58264 11.93873,6.6995 0.78444,-0.48481 3.42662,0.83737 5.8715,2.93819 2.44487,2.10082 6.56914,4.28616 9.16504,4.85632 2.59589,0.57015 6.90079,2.70016 9.56646,4.73335 2.66564,2.0332 6.32912,3.69672 8.14106,3.69672 1.81192,0 5.08437,1.78996 7.27211,3.97769 2.18773,2.18773 6.09949,4.24623 8.6928,4.57443 2.5933,0.3282 6.86086,2.40227 9.48345,4.60903 2.62259,2.20677 6.16643,4.01231 7.87519,4.01231 1.70876,0 5.40954,1.75637 8.22399,3.90306 2.81445,2.14668 6.59967,3.90305 8.41161,3.90305 1.81192,0 4.99474,1.70033 7.07292,3.77851 2.07818,2.07817 5.97585,4.12481 8.66148,4.54807 2.68563,0.42326 7.04282,2.58696 9.68265,4.80822 2.63981,2.22127 6.45114,4.03866 8.46963,4.03866 2.0551,0 5.02088,1.71743 6.7401,3.90306 2.08005,2.64436 4.61112,3.90306 7.84847,3.90306 3.01524,0 6.21845,1.44013 8.68138,3.90306 2.15467,2.15467 5.71503,3.90306 7.94804,3.90306 2.32627,0 5.83909,1.80443 8.26738,4.24671 2.32232,2.3357 5.62751,4.32636 7.34486,4.4237 5.91624,0.33533 9.81299,2.36986 10.64693,5.55886 0.58712,2.24513 1.91587,3.07288 4.46193,2.77954 5.33311,-0.61445 10.36464,1.48557 11.40379,4.75961 0.94484,2.97691 7.05365,5.59662 7.05365,3.0249 0,-0.80033 2.26784,-0.28241 5.03963,1.15093 4.57264,2.36462 4.75348,2.7163 1.95153,3.79526 -1.69845,0.65403 -4.31069,2.66081 -5.80495,4.45949 -1.52627,1.83722 -4.60502,3.29212 -7.02551,3.32001 -4.55855,0.0524 -10.39947,3.48707 -8.7446,5.14195 1.17025,1.17023 -1.57751,2.21358 -8.34846,3.16999 -6.12702,0.86546 -8.29211,2.1276 -8.29211,4.83392 0,2.64754 -3.16777,3.8694 -8.51102,3.28286 -3.10612,-0.34097 -5.04043,0.69628 -7.49839,4.02085 -2.45742,3.32383 -4.61357,4.48036 -8.35293,4.48036 -3.64151,0 -5.86903,1.13744 -8.02582,4.09821 -2.05321,2.81862 -4.40931,4.09259 -7.54601,4.08019 -5.41414,-0.0214 -10.46602,2.3347 -9.24437,4.31138 1.2637,2.04471 -4.4786,4.68367 -10.19148,4.68367 -3.59178,0 -5.15072,0.83465 -5.73548,3.07074 -0.85923,3.28576 -5.70176,5.59546 -10.31663,4.92067 -3.12834,-0.45742 -7.69553,2.6321 -6.57387,4.44699 1.08878,1.76168 -6.61785,4.78131 -9.43942,3.69857 -1.59631,-0.61256 -4.08936,0.8064 -6.9829,3.97442 -3.27458,3.58519 -5.69833,4.83581 -8.89937,4.5919 -5.15435,-0.39276 -8.21284,1.15879 -8.21284,4.16628 0,2.22172 -5.57076,4.80696 -8.95938,4.15782 -2.74546,-0.52593 -8.45977,2.78138 -7.49704,4.33913 1.0431,1.68777 -7.84776,5.38821 -9.89943,4.12022 -0.8606,-0.53188 -3.74626,1.16547 -6.4126,3.77188 -3.33087,3.25603 -6.18233,4.63726 -9.11244,4.41399 -5.02974,-0.38325 -8.07827,1.19285 -8.07827,4.17654 0,2.22171 -5.57075,4.80696 -8.95937,4.15782 -2.74547,-0.52593 -8.45978,2.78138 -7.49704,4.33912 1.02779,1.66298 -7.83276,5.39749 -9.84927,4.15123 -2.23431,-1.38088 -6.48001,0.64318 -6.48001,3.08924 0,2.9653 -6.17408,5.98467 -11.45582,5.60237 -3.20378,-0.23188 -4.64514,0.50084 -5.20629,2.6467 -0.9172,3.50737 -7.27609,6.77206 -10.66068,5.47327 -2.60636,-1.00015 -7.43962,2.18428 -6.24617,4.11533 0.98518,1.59405 -7.96569,5.25442 -9.91018,4.05267 -2.24053,-1.38473 -6.48001,0.64608 -6.48001,3.10407 0,2.29195 -8.40114,7.34435 -9.83236,5.91313 -1.46481,-1.46482 -7.3411,1.08216 -7.3411,3.18187 0,2.32191 -7.3852,6.0541 -9.45207,4.7767 -1.89269,-1.16974 -8.02405,2.20266 -7.00435,3.85257 1.02779,1.66299 -7.83275,5.3975 -9.84926,4.15123 -2.24053,-1.38472 -6.48001,0.64608 -6.48001,3.10407 0,2.79345 -8.85039,7.43685 -10.1541,5.3274 -1.30454,-2.11079 -7.01936,0.99537 -7.01936,3.81521 0,1.17379 -2.07547,2.85769 -4.61215,3.74198 -4.0901,1.42581 -4.73243,1.22221 -5.67471,-1.79881 z"
       id="path853"
       transform="scale(0.26458333)" />
    <path
       style="fill:#ffffff;fill-opacity:1;stroke:#000000;stroke-width:1.56122;stroke-miterlimit:4;stroke-dasharray:6.24489, 12.4898;stroke-dashoffset:0;stroke-opacity:1"
       d="m 162.75755,528.22079 c -1.07334,-0.43309 -1.95153,-1.80479 -1.95153,-3.04819 0,-1.24341 -1.04883,-2.6632 -2.33073,-3.15511 -2.41981,-0.92857 -1.81044,-7.60456 0.97107,-10.63874 2.13402,-2.32786 1.59188,-7.11245 -0.9149,-8.0744 -2.48044,-0.95183 -1.6301,-9.89982 1.11245,-11.70603 2.04809,-1.34885 0.6101,-6.92537 -1.66275,-6.44812 -2.36452,0.49648 -2.2623,-1.99759 0.38612,-9.42127 1.7849,-5.0032 1.77462,-6.24175 -0.0671,-8.08348 -1.79174,-1.79174 -1.84817,-3.59077 -0.32028,-10.20994 1.44603,-6.26455 1.43774,-8.29267 -0.0376,-9.20447 -1.48223,-0.91608 -1.48223,-2.94595 0,-9.36734 1.48224,-6.42141 1.48224,-8.45128 0,-9.36734 -1.48223,-0.91608 -1.48223,-2.94595 0,-9.36734 1.48224,-6.42141 1.48224,-8.45128 0,-9.36734 -1.48223,-0.91608 -1.48223,-2.94595 0,-9.36734 1.48224,-6.42141 1.48224,-8.45128 0,-9.36734 -1.48223,-0.91608 -1.48223,-2.94596 0,-9.36735 1.53508,-6.65029 1.50594,-8.43661 -0.15434,-9.46273 -1.68693,-1.04258 -1.68239,-2.68611 0.0259,-9.35135 1.72489,-6.73017 1.72365,-8.30207 -0.007,-9.37192 -1.71028,-1.05701 -1.73212,-2.73512 -0.12286,-9.44326 1.5741,-6.56156 1.571,-8.39642 -0.0158,-9.37713 -1.29966,-0.80323 -1.60128,-2.74104 -0.88391,-5.67873 2.63509,-10.79098 2.79063,-13.04616 0.89975,-13.04616 -1.26726,0 -1.61083,-1.45313 -1.01509,-4.29337 2.82531,-13.47002 2.89358,-14.44131 1.01509,-14.44131 -1.30049,0 -1.60806,-1.50397 -0.95781,-4.68367 l 1.91562,-9.36735 c 0.65025,-3.1797 0.34269,-4.68367 -0.95781,-4.68367 -1.87849,0 -1.81022,-0.97129 1.0151,-14.44131 0.59573,-2.84024 0.25216,-4.29337 -1.0151,-4.29337 -1.30049,0 -1.60806,-1.50397 -0.95781,-4.68367 l 1.91562,-9.36734 c 0.60805,-2.97336 0.323,-4.68367 -0.78061,-4.68367 -2.51281,0 -2.13525,-6.5448 0.60309,-10.45433 2.31638,-3.30709 1.74741,-8.28035 -0.94732,-8.28035 -2.22094,0 -1.61423,-6.91841 0.89799,-10.23986 2.99046,-3.95374 3.017,-8.49482 0.0496,-8.49482 -2.95199,0 -3.00795,-4.60404 -0.12354,-10.16375 2.21766,-4.27454 1.80456,-8.57094 -0.8241,-8.57094 -0.76681,0 -1.39419,-1.75637 -1.39419,-3.90305 0,-2.14669 0.70255,-3.90306 1.56122,-3.90306 0.85867,0 1.56123,-2.45893 1.56123,-5.46429 0,-3.00535 -0.70256,-5.46428 -1.56123,-5.46428 -0.85867,0 -1.56122,-1.4051 -1.56122,-3.12244 0,-3.12245 0,-3.12245 3.12245,0 1.71734,1.71734 4.52754,3.21026 6.24489,3.3176 5.05504,0.31594 5.30963,0.43081 8.88995,4.01113 1.88412,1.88412 6.09943,3.92302 9.36734,4.5309 3.26792,0.60788 6.84005,2.3754 7.93808,3.92782 1.09802,1.55241 4.61077,3.30879 7.80611,3.90305 3.19535,0.59427 6.68878,2.32306 7.76319,3.84177 1.5635,2.21005 7.56479,4.66228 12.87815,5.26222 0.42934,0.0485 2.28705,1.59457 4.12824,3.43577 1.84119,1.84119 6.23214,3.83496 9.75765,4.43059 3.70506,0.62597 6.41002,1.94884 6.41002,3.13485 0,2.11072 7.71946,5.47978 12.55572,5.47978 1.49735,0 3.13088,1.06437 3.63008,2.36526 0.87725,2.28608 6.50211,5.11071 11.78175,5.91645 1.40928,0.21506 4.0494,1.87811 5.86694,3.69565 1.81754,1.81754 6.19211,3.79246 9.72127,4.38871 3.52916,0.59624 6.06859,1.64727 5.64318,2.3356 -0.96754,1.56551 8.73708,6.2779 12.9286,6.2779 1.71038,0 3.51821,1.06437 4.01741,2.36527 0.89997,2.34526 6.5281,5.11467 12.13242,5.96996 1.60216,0.2445 3.78967,1.55306 4.86115,2.9079 1.07148,1.35484 4.71878,3.34281 8.10509,4.4177 3.38631,1.07489 7.53237,3.23577 9.21347,4.80195 1.68109,1.56618 3.60414,2.50916 4.27346,2.09551 0.66929,-0.41365 1.65819,-0.0381 2.19753,0.8346 0.53934,0.87268 2.52654,1.58669 4.416,1.58669 1.88945,0 4.27341,1.34192 5.2977,2.98205 1.66609,2.66784 10.12352,5.84876 12.1031,4.5521 0.4271,-0.27976 1.79327,0.94293 3.03594,2.71709 1.24266,1.77415 5.29586,4.21513 9.0071,5.4244 3.71124,1.20927 8.08357,3.42179 9.71628,4.91671 1.63273,1.49491 3.51619,2.37958 4.1855,1.96594 0.66929,-0.41366 1.65819,-0.0381 2.19753,0.83459 0.53934,0.87268 2.52654,1.58669 4.416,1.58669 1.88945,0 4.27341,1.34193 5.2977,2.98205 1.66609,2.66785 10.12352,5.84877 12.1031,4.5521 0.42711,-0.27975 1.79327,0.94294 3.03594,2.71709 1.24266,1.77416 5.29586,4.20755 9.00711,5.40753 3.71123,1.19999 7.64607,3.40876 8.7441,4.90837 1.09802,1.49961 4.577,3.21069 7.73107,3.8024 3.15407,0.5917 7.10431,2.35183 8.7783,3.91139 1.67399,1.55956 3.63978,2.46713 4.3684,2.01681 0.72864,-0.45032 1.32479,-0.0747 1.32479,0.8346 0,0.90934 2.0325,1.65336 4.51664,1.65336 2.63323,0 4.90264,1.00592 5.44233,2.41232 1.08369,2.82404 11.35056,7.47773 13.52811,6.13194 0.82087,-0.50733 1.49729,-0.35405 1.50316,0.34063 0.0192,2.28096 10.80157,8.66727 13.12686,7.77497 1.25014,-0.47972 2.49401,-0.35939 2.76415,0.26739 1.14762,2.66268 10.93974,8.27103 13.03637,7.46647 1.25753,-0.48255 2.28643,-0.25541 2.28643,0.50475 0,0.76017 1.93201,2.08776 4.29336,2.95019 2.36135,0.86244 3.29485,1.62354 2.07446,1.69132 -1.22039,0.0678 -3.32804,1.06139 -4.68367,2.20798 -1.35563,1.14658 -4.92369,3.0531 -7.92905,4.23669 -3.00535,1.18361 -7.84394,3.75712 -10.75242,5.71891 -2.90849,1.9618 -7.82634,4.25258 -10.92857,5.09065 -3.10223,0.83804 -6.52455,2.94682 -7.60517,4.68616 -1.2738,2.05028 -3.63223,3.16245 -6.70617,3.16245 -2.97587,0 -6.19477,1.45336 -8.64447,3.90306 -2.14668,2.14668 -5.6969,3.90306 -7.88937,3.90306 -2.35945,0 -5.6756,1.80248 -8.12547,4.41659 -3.10769,3.31601 -5.38889,4.32838 -9.15439,4.06263 -5.14486,-0.36308 -9.28959,2.63495 -7.54508,5.45763 1.23678,2.00116 -5.73539,3.8341 -9.74432,2.56172 -3.20077,-1.01589 -7.49221,2.61624 -5.98073,5.06188 1.42652,2.30816 -5.8867,4.85854 -8.97538,3.13005 -3.16433,-1.77087 -7.81694,1.20203 -6.6481,4.24796 0.98698,2.57202 -6.78902,6.07481 -8.86879,3.99505 -2.02609,-2.0261 -7.32945,0.69107 -7.32945,3.75524 0,3.30512 -5.3418,5.56684 -10.64359,4.50649 -3.92802,-0.78561 -4.83347,-0.35718 -5.80251,2.74559 -1.49065,4.77298 -3.56594,5.99702 -8.49581,5.01105 -2.79976,-0.55995 -4.90051,0.17879 -6.95071,2.44422 -1.61602,1.78569 -2.30243,3.25748 -1.52535,3.27062 4.03987,0.0684 -4.0293,3.05433 -8.30877,3.07464 -3.6351,0.0173 -5.75011,1.11075 -7.59537,3.92696 -1.77148,2.70364 -3.97304,3.90306 -7.16412,3.90306 -5.77388,0 -10.64638,2.52597 -10.64638,5.51921 0,1.50608 -1.61791,2.28691 -4.73859,2.28691 -5.25455,0 -12.89169,4.24267 -11.54871,6.41566 0.47264,0.76475 -0.89703,1.39046 -3.04371,1.39046 -2.14668,0 -4.34434,0.71401 -4.88369,1.58668 -0.53934,0.87268 -1.57123,1.22168 -2.29308,0.77556 -2.12878,-1.31566 -6.27791,0.9058 -6.27791,3.36122 0,1.24681 -0.59615,1.89849 -1.32478,1.44817 -0.72864,-0.45032 -2.66065,0.38905 -4.29337,1.86528 -1.63272,1.47621 -4.37368,2.49227 -6.09103,2.25792 -1.78022,-0.24295 -5.30715,1.63747 -8.2048,4.37445 -2.79529,2.64029 -5.76661,4.37765 -6.60293,3.86078 -1.9394,-1.19861 -8.02854,2.00299 -10.54282,5.5433 -1.28773,1.81323 -3.85612,2.66618 -7.70029,2.5572 -3.17245,-0.0899 -6.01669,0.58229 -6.32052,1.49381 -1.73122,5.19365 -5.03276,7.42807 -10.43776,7.06405 -4.70662,-0.31697 -5.89156,0.24568 -7.07548,3.35963 -1.65169,4.34426 -4.69877,5.8656 -9.32513,4.65577 -3.81852,-0.99857 -9.11143,2.5104 -6.3557,4.21354 1.03058,0.63694 -0.27168,1.90916 -3.19274,3.11909 -3.96175,1.64102 -5.17317,1.65517 -6.1517,0.0718 -1.68986,-2.73425 -8.05966,0.69885 -6.90064,3.71919 1.16836,3.04469 -3.88141,5.33562 -9.78261,4.43811 -4.12547,-0.62744 -5.10461,-0.15619 -6.06501,2.91907 -1.61458,5.17 -4.01763,6.63869 -8.14026,4.97518 z"
       id="path1035"
       transform="scale(0.26458333)" />
    <path
       style="fill:#ffffff;fill-opacity:1;stroke:#000000;stroke-width:0.413652;stroke-miterlimit:4;stroke-dasharray:1.65461, 3.30923;stroke-dashoffset:0;stroke-opacity:1"
       d="m 43.132774,139.16262 c -0.367743,-0.56168 -0.946242,-1.02122 -1.285556,-1.02122 -0.392678,0 -0.525696,-0.23793 -0.365941,-0.65456 0.138043,-0.36001 0.250987,-0.92964 0.250987,-1.26584 0,-0.33622 0.172678,-0.50449 0.383728,-0.37396 0.21105,0.13053 0.513801,-0.17278 0.672778,-0.67406 0.212496,-0.67001 0.04487,-1.10925 -0.632927,-1.65852 l -0.921975,-0.74712 0.856086,-1.45204 c 0.888132,-1.5064 0.802194,-2.69149 -0.19518,-2.69149 -0.704803,0 -0.769714,-1.10783 -0.07842,-1.33844 0.673045,-0.22451 0.55434,-3.23238 -0.144624,-3.66469 -0.440254,-0.2723 -0.44827,-0.4465 -0.03938,-0.85571 0.67153,-0.67202 0.668876,-3.93097 -0.0035,-4.24496 -0.413497,-0.19312 -0.413497,-0.28967 0,-0.48277 0.659943,-0.30821 0.708918,-4.31051 0.05274,-4.31051 -0.317937,0 -0.33284,-0.16292 -0.04731,-0.51726 0.572254,-0.71016 0.599333,-4.44844 0.03222,-4.44844 -0.305119,0 -0.315896,-0.16578 -0.03362,-0.51726 0.476739,-0.59361 0.44001,-19.700543 -0.03936,-20.476763 -0.165604,-0.268152 -0.01345,-1.176493 0.338112,-2.018539 0.570996,-1.367608 0.572399,-1.604868 0.01316,-2.223291 -0.783932,-0.866882 -0.780624,-1.003703 0.06755,-2.792414 0.649132,-1.368967 0.649132,-1.495281 0,-1.970294 -0.857464,-0.627461 -0.870688,-1.308109 -0.0558,-2.871951 0.65239,-1.251989 0.515054,-2.553534 -0.221379,-2.098054 -0.620582,0.383827 -0.478185,-1.493993 0.203827,-2.687946 0.770359,-1.348607 0.770359,-2.069039 0,-2.069039 -0.813058,0 -0.78753,-1.192495 0.06201,-2.89671 0.634005,-1.271841 0.634005,-1.403936 0,-1.867878 -0.871737,-0.637907 -0.882659,-2.104639 -0.01814,-2.436633 0.492493,-0.189129 0.590876,-0.54703 0.380716,-1.385002 -0.155868,-0.621485 -0.499483,-1.263622 -0.763591,-1.426973 -0.349434,-0.216124 -0.284206,-0.629038 0.239532,-1.51632 0.857289,-1.452359 0.933352,-2.897699 0.167966,-3.191626 -0.451105,-0.173236 -0.460225,-0.567201 -0.04999,-2.159504 0.302492,-1.174106 0.358567,-2.222242 0.141195,-2.6391 -0.296514,-0.568621 -0.06035,-5.722536 0.26222,-5.722536 0.414485,0 3.504586,1.491167 4.845331,2.338175 0.908546,0.573969 1.973232,0.959489 2.36597,0.856709 0.405137,-0.106026 0.922478,0.147094 1.19579,0.585064 0.264945,0.424568 0.759255,0.771939 1.098466,0.771939 0.339208,0 0.616742,0.186214 0.616742,0.413807 0,0.227594 0.232593,0.417981 0.516872,0.423081 0.28428,0.0051 1.625643,0.550707 2.980801,1.212462 1.355161,0.661754 2.61116,1.112124 2.791114,1.000826 0.179953,-0.111301 0.327186,-0.009 0.327186,0.227456 0,0.521917 3.195722,2.208289 3.801703,2.006143 0.237568,-0.07925 1.003576,0.390299 1.702241,1.043442 0.825159,0.77139 1.584891,1.127345 2.168044,1.015783 0.56126,-0.10737 1.07535,0.112871 1.371608,0.587613 0.260631,0.417643 0.751406,0.759353 1.090613,0.759353 0.339211,0 0.616745,0.186212 0.616745,0.413807 0,0.227596 0.538316,0.413809 1.196256,0.413809 0.65794,0 1.292112,0.249988 1.409271,0.555528 0.263097,0.686131 3.056702,2.054555 3.559485,1.743584 0.201785,-0.124803 0.977546,0.34396 1.723917,1.041696 0.833014,0.778738 1.64692,1.192746 2.107741,1.07215 0.457323,-0.119684 1.262052,0.281562 2.059122,1.026695 0.778289,0.727574 1.666332,1.176218 2.191797,1.107309 0.511558,-0.06709 1.395694,0.359545 2.100512,1.013578 1.119884,1.039193 1.862221,1.34133 2.841675,1.156585 0.206583,-0.03896 0.485693,0.08761 0.620248,0.281291 0.59078,0.850366 3.0149,2.231253 3.553692,2.024341 0.333496,-0.128068 1.145234,0.326356 1.859085,1.040742 0.858558,0.8592 1.533799,1.198275 2.094209,1.051615 0.545233,-0.142688 1.276761,0.194572 2.14663,0.989663 0.773476,0.706986 1.780496,1.206116 2.433416,1.206116 0.61264,0 1.17592,0.146386 1.25172,0.325303 0.30353,0.716371 2.78854,2.145794 3.35332,1.928901 0.34808,-0.133669 1.14903,0.315106 1.89529,1.061927 0.90238,0.903053 1.53323,1.216956 2.09016,1.040054 0.55257,-0.175508 1.19324,0.133553 2.08475,1.005685 0.81336,0.795677 1.71261,1.259055 2.4434,1.259055 0.81025,0 1.32195,0.309638 1.7096,1.03452 0.53884,1.007583 1.07481,1.233848 2.6076,1.100844 0.41078,-0.03564 1.33103,0.481553 2.04501,1.149324 1.0103,0.944908 1.55528,1.162665 2.45776,0.982036 0.63777,-0.127653 1.1596,-0.05772 1.1596,0.155409 0,0.900451 1.68386,2.146874 2.78461,2.061229 0.7877,-0.06129 1.50143,0.276679 2.29332,1.085943 0.72971,0.745734 1.48494,1.127226 2.06749,1.044343 0.58203,-0.08281 1.34402,0.301416 2.08288,1.050278 0.78733,0.797991 1.46476,1.123533 2.08938,1.004038 0.50837,-0.09725 1.15388,0.06912 1.43447,0.369721 0.84672,0.907101 -0.12952,2.051064 -2.1944,2.571394 -1.03085,0.259768 -1.87429,0.651057 -1.87429,0.86953 0,0.503782 -2.29252,1.71057 -2.6224,1.380439 -0.31872,-0.318956 -2.38789,1.025789 -3.08784,2.006771 -0.38463,0.539074 -0.83752,0.684583 -1.56333,0.502274 -0.79032,-0.198507 -1.29018,0.02439 -2.20631,0.983722 -0.8648,0.905601 -1.4572,1.188211 -2.19492,1.047081 -0.7612,-0.14563 -1.28121,0.12874 -2.10821,1.11232 -0.79627,0.947 -1.32047,1.23489 -1.90851,1.04812 -1.01143,-0.32126 -3.03742,0.94153 -2.74289,1.70964 0.15999,0.41724 -0.24241,0.5595 -1.5826,0.5595 -1.81463,0 -3.04797,0.79812 -2.52983,1.6371 0.15977,0.25872 -0.19908,0.44464 -0.89478,0.4636 -2.09727,0.0572 -2.67205,0.30402 -3.89206,1.67155 -0.88542,0.99247 -1.32767,1.22889 -1.66579,0.89051 -0.6477,-0.64817 -2.21642,0.13332 -2.78811,1.38897 -0.39994,0.87844 -0.64052,0.96474 -2.057317,0.73801 -1.511874,-0.24193 -1.630132,-0.18292 -2.050203,1.023 -0.399847,1.14785 -0.575946,1.25369 -1.708732,1.02696 -1.387884,-0.27779 -2.676516,0.46262 -2.338664,1.3437 0.261969,0.6832 -1.034341,1.09887 -2.37599,0.76188 -0.871074,-0.21879 -1.14914,-0.0478 -1.720529,1.05796 -0.614215,1.18865 -0.817378,1.29344 -2.05676,1.06075 -1.477934,-0.27746 -2.697016,0.49433 -2.697016,1.70747 0,0.48865 -0.287606,0.58532 -1.198767,0.40295 -0.865758,-0.17328 -1.468807,-0.003 -2.170864,0.61403 -0.534656,0.46968 -0.917655,1.0437 -0.851113,1.2756 0.06801,0.23699 -0.252925,0.32378 -0.732854,0.19819 -0.972448,-0.2545 -3.271876,0.7616 -3.587758,1.58539 -0.1158,0.30201 -0.481189,0.44516 -0.811975,0.31814 -0.330786,-0.12704 -0.920126,0.035 -1.309648,0.35991 -0.612044,0.51065 -2.780673,1.58893 -3.395959,1.68853 -0.113713,0.0184 -1.098791,0.55984 -2.189063,1.20316 -1.090271,0.64333 -2.137416,1.16969 -2.326983,1.16969 -0.189571,0 -0.541828,0.23774 -0.782796,0.5283 -0.240971,0.29057 -0.961531,0.56755 -1.601252,0.6155 -0.669321,0.0502 -1.613763,0.58325 -2.224582,1.25563 -0.583805,0.64263 -1.289567,1.09232 -1.568364,0.99932 -0.967919,-0.32288 -2.406822,0.31272 -2.824364,1.2476 -0.332674,0.74485 -0.754485,0.94006 -2.031315,0.94006 -1.346013,0 -1.632802,0.15014 -1.741032,0.91151 -0.147672,1.03883 -1.67116,1.71735 -2.142464,0.95418 -0.520746,-0.8432 -1.874672,-0.28623 -1.766378,0.72665 0.117577,1.09969 -1.375759,2.08634 -2.084403,1.37716 -0.854237,-0.85487 -1.864512,-0.4985 -2.139559,0.75471 -0.356665,1.6251 -1.292705,1.90831 -2.121814,0.64199 z"
       id="path1111" />
  </g>
</svg>
