<?xml version="1.0" encoding="UTF-8" standalone="no"?>
<!-- Created with Inkscape (http://www.inkscape.org/) -->

<svg
   width="210mm"
   height="297mm"
   viewBox="0 0 210 297"
   version="1.1"
   id="svg5"
   inkscape:version="1.1.1 (3bf5ae0d25, 2021-09-20)"
   sodipodi:docname="play2.svg"
   xmlns:inkscape="http://www.inkscape.org/namespaces/inkscape"
   xmlns:sodipodi="http://sodipodi.sourceforge.net/DTD/sodipodi-0.dtd"
   xmlns="http://www.w3.org/2000/svg"
   xmlns:svg="http://www.w3.org/2000/svg">
  <sodipodi:namedview
     id="namedview7"
     pagecolor="#ffffff"
     bordercolor="#666666"
     borderopacity="1.0"
     inkscape:pageshadow="2"
     inkscape:pageopacity="0.0"
     inkscape:pagecheckerboard="0"
     inkscape:document-units="mm"
     showgrid="false"
     inkscape:zoom="0.64052329"
     inkscape:cx="397.33138"
     inkscape:cy="561.25984"
     inkscape:window-width="2048"
     inkscape:window-height="1089"
     inkscape:window-x="-8"
     inkscape:window-y="-8"
     inkscape:window-maximized="1"
     inkscape:current-layer="layer1" />
  <defs
     id="defs2" />
  <g
     inkscape:label="Layer 1"
     inkscape:groupmode="layer"
     id="layer1">
    <path
       style="fill:none;fill-rule:evenodd;stroke:#000000;stroke-width:0.264583px;stroke-linecap:butt;stroke-linejoin:miter;stroke-opacity:1"
       d="M 40.894299,141.72044 140.8943,91.720441 40.894298,41.720447 Z"
       id="path459" />
    <path
       style="fill:#ffffff;fill-opacity:1;stroke:#000000;stroke-width:1.56122;stroke-miterlimit:4;stroke-dasharray:6.24489, 12.4898;stroke-dashoffset:0;stroke-opacity:1"
       d="m 156.12235,346.59161 c 0,-102.18207 0.35049,-185.78559 0.77886,-185.78559 1.53598,0 370.79233,185.01599 370.79233,185.78559 0,0.76961 -369.25635,185.7856 -370.79233,185.7856 -0.42837,0 -0.77886,-83.60352 -0.77886,-185.7856 z"
       id="path738"
       transform="scale(0.26458333)" />
    <path
       style="fill:#f9f9f9;fill-opacity:1;stroke:#000000;stroke-width:1.56122;stroke-miterlimit:4;stroke-dasharray:6.24489, 12.4898;stroke-dashoffset:0;stroke-opacity:1"
       d="m 159.19328,529.71045 c -2.13315,-0.49391 -2.4016,-20.58437 -2.46917,-184.78624 -0.0417,-101.32765 0.44384,-183.39126 1.07899,-182.36357 0.63514,1.02768 2.49197,1.96702 4.12629,2.08743 4.25825,0.31371 12.92764,4.10568 12.92764,5.65452 0,0.7214 2.69958,2.03856 5.99907,2.92702 3.2995,0.88847 7.6223,3.0232 9.60623,4.74385 1.98393,1.72066 4.02656,3.18222 4.53918,3.24791 4.64718,0.5956 7.47603,1.74817 12.38672,5.0468 3.14533,2.11279 7.52123,4.2545 9.72424,4.75936 2.203,0.50486 5.64761,2.34216 7.65469,4.08289 2.00708,1.74073 4.8488,3.16496 6.31493,3.16496 1.46614,0 5.34923,1.82109 8.62909,4.04686 3.27986,2.22578 7.35225,4.31434 9.04976,4.64125 1.69751,0.32691 5.61062,2.28892 8.6958,4.36003 3.08518,2.07111 7.41188,4.17873 9.61488,4.68359 2.203,0.50486 5.64762,2.34216 7.65469,4.08289 2.00708,1.74073 4.8488,3.16496 6.31494,3.16496 1.46613,0 5.37936,1.84154 8.69605,4.09231 3.31669,2.25076 6.75185,4.19924 7.63367,4.32993 3.58226,0.53094 11.75128,4.53367 11.75128,5.758 0,0.7214 2.69959,2.03856 5.99908,2.92702 3.29949,0.88846 7.62228,3.0232 9.60622,4.74385 1.98393,1.72066 4.80671,3.12846 6.27284,3.12846 1.46615,0 5.37937,1.84154 8.69606,4.09231 3.3167,2.25077 6.75184,4.19924 7.63367,4.32994 3.58226,0.53093 11.75128,4.53367 11.75128,5.758 0,0.7214 2.69959,2.03856 5.99908,2.92702 3.29949,0.88846 7.62228,3.02319 9.60622,4.74385 1.98393,1.72065 4.02657,3.18221 4.53918,3.24791 4.64719,0.59559 7.47603,1.74817 12.38672,5.04679 3.14533,2.11279 7.52124,4.25451 9.72424,4.75937 2.20301,0.50486 5.64761,2.34216 7.65469,4.08289 2.00708,1.74073 4.8488,3.16496 6.31493,3.16496 1.46615,0 5.37937,1.84154 8.69606,4.09231 5.32292,3.61223 7.86565,4.71489 11.8887,5.15558 0.59976,0.0657 2.98564,1.87583 5.30195,4.02251 2.31631,2.14668 5.56017,3.90306 7.20857,3.90306 3.70633,0 8.31105,2.39676 12.33431,6.42001 1.68367,1.68367 3.71751,2.65561 4.51965,2.15986 1.82761,-1.12953 10.42369,3.20922 11.24605,5.67628 0.33588,1.00765 2.02326,1.93615 3.7497,2.06335 4.89163,0.36036 13.1476,4.18974 12.23086,5.67305 -0.45353,0.73383 1.13614,1.77142 3.5326,2.30575 8.56161,1.90891 9.96569,2.52782 12.91405,5.69252 1.64281,1.76335 4.69321,3.3934 6.77866,3.62232 2.08545,0.22892 5.26804,1.20632 7.07244,2.172 3.22398,1.72542 3.22937,1.8071 0.31221,4.72427 -4.05203,4.05203 -9.20683,6.6617 -10.98628,5.56193 -0.80961,-0.50037 -2.84957,0.46779 -4.53324,2.15146 -4.02325,4.02326 -8.62797,6.42002 -12.3343,6.42002 -1.6484,0 -4.89227,1.75637 -7.20858,3.90306 -2.3163,2.14668 -4.70218,3.9616 -5.30194,4.03315 -0.59976,0.0715 -2.77609,0.31315 -4.83627,0.53688 -2.06017,0.22372 -4.5191,1.45552 -5.46428,2.73732 -2.31877,3.14463 -7.84224,5.96305 -11.68624,5.96305 -1.73113,0 -3.70933,0.95127 -4.396,2.11392 -1.59677,2.70362 -7.6644,5.90023 -12.12994,6.39042 -1.90732,0.20938 -4.93586,1.84868 -6.73009,3.64291 -1.79422,1.79422 -5.75787,3.95132 -8.8081,4.79352 -3.05022,0.8422 -6.64021,2.62563 -7.97774,3.96318 -1.33755,1.33753 -5.21047,3.18007 -8.60653,4.09454 -3.39605,0.91446 -6.17463,2.2529 -6.17463,2.97429 0,1.22434 -8.16903,5.22707 -11.75129,5.758 -0.88182,0.13067 -4.31697,2.07917 -7.63366,4.32994 -3.3167,2.25077 -7.22992,4.09231 -8.69606,4.09231 -1.46613,0 -4.30786,1.42423 -6.31493,3.16496 -2.00708,1.74073 -5.45169,3.57803 -7.6547,4.0829 -2.20299,0.50485 -6.52969,2.61247 -9.61487,4.68357 -3.0852,2.07112 -6.99829,4.03313 -8.6958,4.36005 -1.69751,0.3269 -5.7699,2.41546 -9.04977,4.64123 -3.27985,2.22578 -7.16294,4.04687 -8.62908,4.04687 -1.46613,0 -4.30786,1.42422 -6.31493,3.16496 -2.00708,1.74073 -5.45169,3.57802 -7.6547,4.08289 -2.20299,0.50485 -6.57891,2.64657 -9.72423,4.75936 -4.91069,3.29863 -7.73954,4.4512 -12.38672,5.0468 -0.51262,0.0657 -2.55525,1.52725 -4.53919,3.2479 -1.98393,1.72066 -6.30673,3.8554 -9.60622,4.74386 -3.29949,0.88846 -5.99907,2.20562 -5.99907,2.92701 0,1.22434 -8.16903,5.22707 -11.75128,5.758 -0.88183,0.13067 -4.31698,2.07917 -7.63368,4.32994 -3.31669,2.25077 -7.22991,4.09231 -8.69605,4.09231 -1.46613,0 -4.30785,1.42423 -6.31493,3.16496 -2.00708,1.74073 -5.45169,3.57803 -7.65469,4.0829 -2.20301,0.50485 -6.52971,2.61247 -9.61489,4.68357 -3.08518,2.07112 -6.99829,4.03313 -8.69579,4.36005 -1.69751,0.3269 -5.7699,2.41546 -9.04976,4.64123 -3.27987,2.22578 -7.16295,4.04687 -8.62909,4.04687 -1.46613,0 -4.28892,1.4078 -6.27285,3.12845 -1.98393,1.72066 -6.27707,3.84741 -9.5403,4.72611 -3.26324,0.8787 -6.35865,2.28608 -6.87869,3.12753 -1.48491,2.40263 -9.08378,5.69799 -11.72761,5.08583 z"
       id="path777"
       transform="scale(0.26458333)" />
    <path
       style="fill:#f9f9f9;fill-opacity:1;stroke:#000000;stroke-width:1.56122;stroke-miterlimit:4;stroke-dasharray:6.24489, 12.4898;stroke-dashoffset:0;stroke-opacity:1"
       d="m 159.8865,527.19708 c -0.5844,-1.87362 -1.68669,-3.8094 -2.44952,-4.30171 -0.78868,-0.50898 -0.57071,-4.43138 0.50531,-9.09294 1.48224,-6.42141 1.48224,-8.45128 0,-9.36734 -1.48223,-0.91608 -1.48223,-2.94595 0,-9.36735 1.49257,-6.46616 1.48659,-8.44857 -0.0283,-9.38485 -1.46682,-0.90654 -1.52956,-2.93196 -0.26552,-8.57237 0.91031,-4.06196 1.2001,-8.12158 0.64398,-9.0214 -1.53962,-2.49115 -1.74674,-232.56915 -0.21332,-236.96815 0.87271,-2.50361 0.66285,-5.10781 -0.60209,-7.47137 -1.51797,-2.83635 -1.53695,-4.74763 -0.087,-8.75746 2.32537,-6.43069 2.36958,-10.37186 0.11634,-10.37186 -1.10361,0 -1.38866,-1.71032 -0.78061,-4.68367 l 1.91562,-9.36734 c 0.65025,-3.17971 0.34269,-4.68368 -0.95781,-4.68368 -1.30049,0 -1.60806,-1.50396 -0.95781,-4.68367 l 1.91562,-9.36734 c 0.60805,-2.97335 0.323,-4.68367 -0.78061,-4.68367 -0.95613,0 -1.73842,-1.41507 -1.73842,-3.1446 0,-2.99497 0.29285,-2.9508 6.15478,0.92845 3.38513,2.24017 6.84124,3.64878 7.68025,3.13025 0.83901,-0.51854 2.4603,-0.0294 3.60287,1.08697 4.13573,4.04092 9.85845,7.36627 12.67689,7.36627 1.58358,0 5.18197,1.75638 7.99641,3.90306 2.81445,2.14668 6.3272,3.90306 7.80612,3.90306 1.47892,0 5.12125,1.85521 8.09407,4.12269 2.97281,2.26748 7.09927,4.30866 9.1699,4.53596 2.07062,0.22729 5.30679,1.84987 7.19147,3.60572 1.88468,1.75584 5.55873,3.66072 8.16454,4.23305 2.60582,0.57234 7.5165,3.05345 10.91263,5.5136 3.39613,2.46014 6.78542,4.09558 7.53177,3.63431 0.74635,-0.46127 3.84032,1.05544 6.87548,3.37047 3.03516,2.31504 7.21263,4.39512 9.28326,4.62242 2.07062,0.2273 5.30679,1.84987 7.19147,3.60572 1.88468,1.75585 5.60802,3.67155 8.27409,4.25712 2.66607,0.58557 7.02838,2.72819 9.69404,4.76138 2.66565,2.03319 6.31088,3.69671 8.10051,3.69671 1.78963,0 4.18224,0.92498 5.31692,2.0555 3.87192,3.85777 10.50978,7.58264 11.93873,6.6995 0.78444,-0.48481 3.42662,0.83737 5.8715,2.93819 2.44487,2.10082 6.56914,4.28616 9.16504,4.85632 2.59589,0.57015 6.90079,2.70016 9.56646,4.73335 2.66564,2.0332 6.32912,3.69672 8.14106,3.69672 1.81192,0 5.08437,1.78996 7.27211,3.97769 2.18773,2.18773 6.09949,4.24623 8.6928,4.57443 2.5933,0.3282 6.86086,2.40227 9.48345,4.60903 2.62259,2.20677 6.16643,4.01231 7.87519,4.01231 1.70876,0 5.40954,1.75637 8.22399,3.90306 2.81445,2.14668 6.59967,3.90305 8.41161,3.90305 1.81192,0 4.99474,1.70033 7.07292,3.77851 2.07818,2.07817 5.97585,4.12481 8.66148,4.54807 2.68563,0.42326 7.04282,2.58696 9.68265,4.80822 2.63981,2.22127 6.45114,4.03866 8.46963,4.03866 2.0551,0 5.02088,1.71743 6.7401,3.90306 2.08005,2.64436 4.61112,3.90306 7.84847,3.90306 3.01524,0 6.21845,1.44013 8.68138,3.90306 2.15467,2.15467 5.71503,3.90306 7.94804,3.90306 2.32627,0 5.83909,1.80443 8.26738,4.24671 2.32232,2.3357 5.62751,4.32636 7.34486,4.4237 5.91624,0.33533 9.81299,2.36986 10.64693,5.55886 0.58712,2.24513 1.91587,3.07288 4.46193,2.77954 5.33311,-0.61445 10.36464,1.48557 11.40379,4.75961 0.94484,2.97691 7.05365,5.59662 7.05365,3.0249 0,-0.80033 2.26784,-0.28241 5.03963,1.15093 4.57264,2.36462 4.75348,2.7163 1.95153,3.79526 -1.69845,0.65403 -4.31069,2.66081 -5.80495,4.45949 -1.52627,1.83722 -4.60502,3.29212 -7.02551,3.32001 -4.55855,0.0524 -10.39947,3.48707 -8.7446,5.14195 1.17025,1.17023 -1.57751,2.21358 -8.34846,3.16999 -6.12702,0.86546 -8.29211,2.1276 -8.29211,4.83392 0,2.64754 -3.16777,3.8694 -8.51102,3.28286 -3.10612,-0.34097 -5.04043,0.69628 -7.49839,4.02085 -2.45742,3.32383 -4.61357,4.48036 -8.35293,4.48036 -3.64151,0 -5.86903,1.13744 -8.02582,4.09821 -2.05321,2.81862 -4.40931,4.09259 -7.54601,4.08019 -5.41414,-0.0214 -10.46602,2.3347 -9.24437,4.31138 1.2637,2.04471 -4.4786,4.68367 -10.19148,4.68367 -3.59178,0 -5.15072,0.83465 -5.73548,3.07074 -0.85923,3.28576 -5.70176,5.59546 -10.31663,4.92067 -3.12834,-0.45742 -7.69553,2.6321 -6.57387,4.44699 1.08878,1.76168 -6.61785,4.78131 -9.43942,3.69857 -1.59631,-0.61256 -4.08936,0.8064 -6.9829,3.97442 -3.27458,3.58519 -5.69833,4.83581 -8.89937,4.5919 -5.15435,-0.39276 -8.21284,1.15879 -8.21284,4.16628 0,2.22172 -5.57076,4.80696 -8.95938,4.15782 -2.74546,-0.52593 -8.45977,2.78138 -7.49704,4.33913 1.0431,1.68777 -7.84776,5.38821 -9.89943,4.12022 -0.8606,-0.53188 -3.74626,1.16547 -6.4126,3.77188 -3.33087,3.25603 -6.18233,4.63726 -9.11244,4.41399 -5.02974,-0.38325 -8.07827,1.19285 -8.07827,4.17654 0,2.22171 -5.57075,4.80696 -8.95937,4.15782 -2.74547,-0.52593 -8.45978,2.78138 -7.49704,4.33912 1.02779,1.66298 -7.83276,5.39749 -9.84927,4.15123 -2.23431,-1.38088 -6.48001,0.64318 -6.48001,3.08924 0,2.9653 -6.17408,5.98467 -11.45582,5.60237 -3.20378,-0.23188 -4.64514,0.50084 -5.20629,2.6467 -0.9172,3.50737 -7.27609,6.77206 -10.66068,5.47327 -2.60636,-1.00015 -7.43962,2.18428 -6.24617,4.11533 0.98518,1.59405 -7.96569,5.25442 -9.91018,4.05267 -2.24053,-1.38473 -6.48001,0.64608 -6.48001,3.10407 0,2.29195 -8.40114,7.34435 -9.83236,5.91313 -1.46481,-1.46482 -7.3411,1.08216 -7.3411,3.18187 0,2.32191 -7.3852,6.0541 -9.45207,4.7767 -1.89269,-1.16974 -8.02405,2.20266 -7.00435,3.85257 1.02779,1.66299 -7.83275,5.3975 -9.84926,4.15123 -2.24053,-1.38472 -6.48001,0.64608 -6.48001,3.10407 0,2.79345 -8.85039,7.43685 -10.1541,5.3274 -1.30454,-2.11079 -7.01936,0.99537 -7.01936,3.81521 0,1.17379 -2.07547,2.85769 -4.61215,3.74198 -4.0901,1.42581 -4.73243,1.22221 -5.67471,-1.79881 z"
       id="path853"
       transform="scale(0.26458333)" />
    <path
       style="fill:#ffffff;fill-opacity:1;stroke:#000000;stroke-width:1.56122;stroke-miterlimit:4;stroke-dasharray:6.24489, 12.4898;stroke-dashoffset:0;stroke-opacity:1"
       d="m 162.75755,528.22079 c -1.07334,-0.43309 -1.95153,-1.80479 -1.95153,-3.04819 0,-1.24341 -1.04883,-2.6632 -2.33073,-3.15511 -2.41981,-0.92857 -1.81044,-7.60456 0.97107,-10.63874 2.13402,-2.32786 1.59188,-7.11245 -0.9149,-8.0744 -2.48044,-0.95183 -1.6301,-9.89982 1.11245,-11.70603 2.04809,-1.34885 0.6101,-6.92537 -1.66275,-6.44812 -2.36452,0.49648 -2.2623,-1.99759 0.38612,-9.42127 1.7849,-5.0032 1.77462,-6.24175 -0.0671,-8.08348 -1.79174,-1.79174 -1.84817,-3.59077 -0.32028,-10.20994 1.44603,-6.26455 1.43774,-8.29267 -0.0376,-9.20447 -1.48223,-0.91608 -1.48223,-2.94595 0,-9.36734 1.48224,-6.42141 1.48224,-8.45128 0,-9.36734 -1.48223,-0.91608 -1.48223,-2.94595 0,-9.36734 1.48224,-6.42141 1.48224,-8.45128 0,-9.36734 -1.48223,-0.91608 -1.48223,-2.94595 0,-9.36734 1.48224,-6.42141 1.48224,-8.45128 0,-9.36734 -1.48223,-0.91608 -1.48223,-2.94596 0,-9.36735 1.53508,-6.65029 1.50594,-8.43661 -0.15434,-9.46273 -1.68693,-1.04258 -1.68239,-2.68611 0.0259,-9.35135 1.72489,-6.73017 1.72365,-8.30207 -0.007,-9.37192 -1.71028,-1.05701 -1.73212,-2.73512 -0.12286,-9.44326 1.5741,-6.56156 1.571,-8.39642 -0.0158,-9.37713 -1.29966,-0.80323 -1.60128,-2.74104 -0.88391,-5.67873 2.63509,-10.79098 2.79063,-13.04616 0.89975,-13.04616 -1.26726,0 -1.61083,-1.45313 -1.01509,-4.29337 2.82531,-13.47002 2.89358,-14.44131 1.01509,-14.44131 -1.30049,0 -1.60806,-1.50397 -0.95781,-4.68367 l 1.91562,-9.36735 c 0.65025,-3.1797 0.34269,-4.68367 -0.95781,-4.68367 -1.87849,0 -1.81022,-0.97129 1.0151,-14.44131 0.59573,-2.84024 0.25216,-4.29337 -1.0151,-4.29337 -1.30049,0 -1.60806,-1.50397 -0.95781,-4.68367 l 1.91562,-9.36734 c 0.60805,-2.97336 0.323,-4.68367 -0.78061,-4.68367 -2.51281,0 -2.13525,-6.5448 0.60309,-10.45433 2.31638,-3.30709 1.74741,-8.28035 -0.94732,-8.28035 -2.22094,0 -1.61423,-6.91841 0.89799,-10.23986 2.99046,-3.95374 3.017,-8.49482 0.0496,-8.49482 -2.95199,0 -3.00795,-4.60404 -0.12354,-10.16375 2.21766,-4.27454 1.80456,-8.57094 -0.8241,-8.57094 -0.76681,0 -1.39419,-1.75637 -1.39419,-3.90305 0,-2.14669 0.70255,-3.90306 1.56122,-3.90306 0.85867,0 1.56123,-2.45893 1.56123,-5.46429 0,-3.00535 -0.70256,-5.46428 -1.56123,-5.46428 -0.85867,0 -1.56122,-1.4051 -1.56122,-3.12244 0,-3.12245 0,-3.12245 3.12245,0 1.71734,1.71734 4.52754,3.21026 6.24489,3.3176 5.05504,0.31594 5.30963,0.43081 8.88995,4.01113 1.88412,1.88412 6.09943,3.92302 9.36734,4.5309 3.26792,0.60788 6.84005,2.3754 7.93808,3.92782 1.09802,1.55241 4.61077,3.30879 7.80611,3.90305 3.19535,0.59427 6.68878,2.32306 7.76319,3.84177 1.5635,2.21005 7.56479,4.66228 12.87815,5.26222 0.42934,0.0485 2.28705,1.59457 4.12824,3.43577 1.84119,1.84119 6.23214,3.83496 9.75765,4.43059 3.70506,0.62597 6.41002,1.94884 6.41002,3.13485 0,2.11072 7.71946,5.47978 12.55572,5.47978 1.49735,0 3.13088,1.06437 3.63008,2.36526 0.87725,2.28608 6.50211,5.11071 11.78175,5.91645 1.40928,0.21506 4.0494,1.87811 5.86694,3.69565 1.81754,1.81754 6.19211,3.79246 9.72127,4.38871 3.52916,0.59624 6.06859,1.64727 5.64318,2.3356 -0.96754,1.56551 8.73708,6.2779 12.9286,6.2779 1.71038,0 3.51821,1.06437 4.01741,2.36527 0.89997,2.34526 6.5281,5.11467 12.13242,5.96996 1.60216,0.2445 3.78967,1.55306 4.86115,2.9079 1.07148,1.35484 4.71878,3.34281 8.10509,4.4177 3.38631,1.07489 7.53237,3.23577 9.21347,4.80195 1.68109,1.56618 3.60414,2.50916 4.27346,2.09551 0.66929,-0.41365 1.65819,-0.0381 2.19753,0.8346 0.53934,0.87268 2.52654,1.58669 4.416,1.58669 1.88945,0 4.27341,1.34192 5.2977,2.98205 1.66609,2.66784 10.12352,5.84876 12.1031,4.5521 0.4271,-0.27976 1.79327,0.94293 3.03594,2.71709 1.24266,1.77415 5.29586,4.21513 9.0071,5.4244 3.71124,1.20927 8.08357,3.42179 9.71628,4.91671 1.63273,1.49491 3.51619,2.37958 4.1855,1.96594 0.66929,-0.41366 1.65819,-0.0381 2.19753,0.83459 0.53934,0.87268 2.52654,1.58669 4.416,1.58669 1.88945,0 4.27341,1.34193 5.2977,2.98205 1.66609,2.66785 10.12352,5.84877 12.1031,4.5521 0.42711,-0.27975 1.79327,0.94294 3.03594,2.71709 1.24266,1.77416 5.29586,4.20755 9.00711,5.40753 3.71123,1.19999 7.64607,3.40876 8.7441,4.90837 1.09802,1.49961 4.577,3.21069 7.73107,3.8024 3.15407,0.5917 7.10431,2.35183 8.7783,3.91139 1.67399,1.55956 3.63978,2.46713 4.3684,2.01681 0.72864,-0.45032 1.32479,-0.0747 1.32479,0.8346 0,0.90934 2.0325,1.65336 4.51664,1.65336 2.63323,0 4.90264,1.00592 5.44233,2.41232 1.08369,2.82404 11.35056,7.47773 13.52811,6.13194 0.82087,-0.50733 1.49729,-0.35405 1.50316,0.34063 0.0192,2.28096 10.80157,8.66727 13.12686,7.77497 1.25014,-0.47972 2.49401,-0.35939 2.76415,0.26739 1.14762,2.66268 10.93974,8.27103 13.03637,7.46647 1.25753,-0.48255 2.28643,-0.25541 2.28643,0.50475 0,0.76017 1.93201,2.08776 4.29336,2.95019 2.36135,0.86244 3.29485,1.62354 2.07446,1.69132 -1.22039,0.0678 -3.32804,1.06139 -4.68367,2.20798 -1.35563,1.14658 -4.92369,3.0531 -7.92905,4.23669 -3.00535,1.18361 -7.84394,3.75712 -10.75242,5.71891 -2.90849,1.9618 -7.82634,4.25258 -10.92857,5.09065 -3.10223,0.83804 -6.52455,2.94682 -7.60517,4.68616 -1.2738,2.05028 -3.63223,3.16245 -6.70617,3.16245 -2.97587,0 -6.19477,1.45336 -8.64447,3.90306 -2.14668,2.14668 -5.6969,3.90306 -7.88937,3.90306 -2.35945,0 -5.6756,1.80248 -8.12547,4.41659 -3.10769,3.31601 -5.38889,4.32838 -9.15439,4.06263 -5.14486,-0.36308 -9.28959,2.63495 -7.54508,5.45763 1.23678,2.00116 -5.73539,3.8341 -9.74432,2.56172 -3.20077,-1.01589 -7.49221,2.61624 -5.98073,5.06188 1.42652,2.30816 -5.8867,4.85854 -8.97538,3.13005 -3.16433,-1.77087 -7.81694,1.20203 -6.6481,4.24796 0.98698,2.57202 -6.78902,6.07481 -8.86879,3.99505 -2.02609,-2.0261 -7.32945,0.69107 -7.32945,3.75524 0,3.30512 -5.3418,5.56684 -10.64359,4.50649 -3.92802,-0.78561 -4.83347,-0.35718 -5.80251,2.74559 -1.49065,4.77298 -3.56594,5.99702 -8.49581,5.01105 -2.79976,-0.55995 -4.90051,0.17879 -6.95071,2.44422 -1.61602,1.78569 -2.30243,3.25748 -1.52535,3.27062 4.03987,0.0684 -4.0293,3.05433 -8.30877,3.07464 -3.6351,0.0173 -5.75011,1.11075 -7.59537,3.92696 -1.77148,2.70364 -3.97304,3.90306 -7.16412,3.90306 -5.77388,0 -10.64638,2.52597 -10.64638,5.51921 0,1.50608 -1.61791,2.28691 -4.73859,2.28691 -5.25455,0 -12.89169,4.24267 -11.54871,6.41566 0.47264,0.76475 -0.89703,1.39046 -3.04371,1.39046 -2.14668,0 -4.34434,0.71401 -4.88369,1.58668 -0.53934,0.87268 -1.57123,1.22168 -2.29308,0.77556 -2.12878,-1.31566 -6.27791,0.9058 -6.27791,3.36122 0,1.24681 -0.59615,1.89849 -1.32478,1.44817 -0.72864,-0.45032 -2.66065,0.38905 -4.29337,1.86528 -1.63272,1.47621 -4.37368,2.49227 -6.09103,2.25792 -1.78022,-0.24295 -5.30715,1.63747 -8.2048,4.37445 -2.79529,2.64029 -5.76661,4.37765 -6.60293,3.86078 -1.9394,-1.19861 -8.02854,2.00299 -10.54282,5.5433 -1.28773,1.81323 -3.85612,2.66618 -7.70029,2.5572 -3.17245,-0.0899 -6.01669,0.58229 -6.32052,1.49381 -1.73122,5.19365 -5.03276,7.42807 -10.43776,7.06405 -4.70662,-0.31697 -5.89156,0.24568 -7.07548,3.35963 -1.65169,4.34426 -4.69877,5.8656 -9.32513,4.65577 -3.81852,-0.99857 -9.11143,2.5104 -6.3557,4.21354 1.03058,0.63694 -0.27168,1.90916 -3.19274,3.11909 -3.96175,1.64102 -5.17317,1.65517 -6.1517,0.0718 -1.68986,-2.73425 -8.05966,0.69885 -6.90064,3.71919 1.16836,3.04469 -3.88141,5.33562 -9.78261,4.43811 -4.12547,-0.62744 -5.10461,-0.15619 -6.06501,2.91907 -1.61458,5.17 -4.01763,6.63869 -8.14026,4.97518 z"
       id="path1035"
       transform="scale(0.26458333)" />
    <path
       style="fill:#ffffff;fill-opacity:1;stroke:#000000;stroke-width:1.56122;stroke-miterlimit:4;stroke-dasharray:6.24489, 12.4898;stroke-dashoffset:0;stroke-opacity:1"
       d="m 162.9714,525.30151 c -1.38847,-2.11908 -3.57268,-3.85287 -4.85381,-3.85287 -1.48261,0 -1.98484,-0.89767 -1.38166,-2.46952 0.5212,-1.35824 0.94764,-3.50736 0.94764,-4.7758 0,-1.26847 0.65197,-1.90335 1.44882,-1.41088 0.79685,0.49249 1.93993,-0.6519 2.54017,-2.54308 0.80231,-2.52788 0.16944,-4.18503 -2.38971,-6.2573 l -3.48105,-2.81878 3.23228,-5.4783 c 3.35327,-5.68337 3.0288,-10.15448 -0.73693,-10.15448 -2.66109,0 -2.90617,-4.17967 -0.2961,-5.0497 2.54118,-0.84705 2.09299,-12.19523 -0.54605,-13.82625 -1.66224,-1.02732 -1.69251,-1.68458 -0.14868,-3.22841 2.53546,-2.53546 2.52544,-14.83087 -0.0131,-16.01552 -1.56122,-0.72856 -1.56122,-1.09285 0,-1.82141 2.49171,-1.1628 2.67662,-16.26275 0.19915,-16.26275 -1.20042,0 -1.25669,-0.61469 -0.17865,-1.95153 2.16063,-2.67931 2.26287,-16.78315 0.12167,-16.78315 -1.15202,0 -1.19271,-0.62549 -0.12696,-1.95153 1.8,-2.23964 1.66132,-74.32667 -0.14862,-77.25521 -0.62526,-1.01169 -0.0508,-4.4387 1.27659,-7.61559 2.15588,-5.15974 2.16118,-6.05488 0.0497,-8.38808 -2.95985,-3.27059 -2.94736,-3.78679 0.25502,-10.53528 2.45089,-5.16487 2.45089,-5.64143 0,-7.43357 -3.23748,-2.3673 -3.28741,-4.93526 -0.21068,-10.83536 2.46319,-4.72353 1.94466,-9.63403 -0.83585,-7.91558 -2.3431,1.44811 -1.80546,-5.63657 0.76958,-10.14114 2.9086,-5.08806 2.9086,-7.80612 0,-7.80612 -3.06982,0 -2.97344,-4.49907 0.23411,-10.92877 2.39378,-4.79843 2.39378,-5.2968 0,-7.04717 -3.29137,-2.40671 -3.33261,-7.94043 -0.0685,-9.19298 1.85948,-0.71355 2.23094,-2.06385 1.43745,-5.22537 -0.5885,-2.34475 -1.88587,-4.76742 -2.88305,-5.38371 -1.31934,-0.8154 -1.07306,-2.37325 0.90439,-5.72081 3.23682,-5.47949 3.52401,-10.9325 0.63418,-12.04143 -1.70321,-0.65359 -1.73765,-2.13995 -0.18875,-8.14743 1.1421,-4.42969 1.35382,-8.38412 0.5331,-9.95685 -1.11953,-2.14531 -0.22785,-21.59011 0.99005,-21.59011 1.56495,0 13.23208,5.62591 18.29426,8.82152 3.43035,2.16548 7.45023,3.61998 8.93307,3.23221 1.52965,-0.40002 3.48295,0.55496 4.51488,2.20734 1.00034,1.60182 2.86668,2.91239 4.14742,2.91239 1.28073,0 2.3286,0.70255 2.3286,1.56122 0,0.85867 0.87819,1.57697 1.95153,1.59621 1.07334,0.0192 6.13785,2.07772 11.25445,4.5744 5.11661,2.49668 9.85882,4.19585 10.53826,3.77594 0.67944,-0.41992 1.23534,-0.0337 1.23534,0.85815 0,1.9691 12.06592,8.33148 14.35389,7.56882 0.89697,-0.29899 3.78915,1.47253 6.42706,3.93672 3.11551,2.91032 5.98399,4.25327 8.18577,3.83237 2.11912,-0.40509 4.06014,0.42584 5.17871,2.21696 0.98405,1.57569 2.83704,2.8649 4.11777,2.8649 1.28074,0 2.32861,0.70255 2.32861,1.56122 0,0.85868 2.03249,1.56123 4.51664,1.56123 2.48415,0 4.87856,0.94316 5.32091,2.09591 0.99336,2.58865 11.54103,7.75147 13.43936,6.57823 0.76187,-0.47086 3.69087,1.2977 6.5089,3.93013 3.14517,2.93804 6.21819,4.50002 7.95809,4.04503 1.72669,-0.45154 4.76506,1.06229 7.77452,3.87354 2.93854,2.74501 6.29148,4.43766 8.27545,4.17768 1.93146,-0.25311 5.26965,1.3565 7.93079,3.82405 4.22829,3.92069 7.03109,5.0606 10.72916,4.36359 0.77999,-0.147 1.83381,0.33056 2.34184,1.06126 2.23058,3.20828 11.3832,8.41812 13.41749,7.63748 1.25916,-0.48318 4.324,1.23128 7.01925,3.92653 3.24161,3.24161 5.79108,4.52088 7.90699,3.96756 2.05861,-0.53834 4.8206,0.73408 8.10492,3.73382 2.92034,2.66733 6.72253,4.55046 9.18773,4.55046 2.3131,0 4.43981,0.55229 4.72605,1.22731 1.14601,2.70274 10.5285,8.0957 12.66096,7.2774 1.31419,-0.50431 4.33831,1.18884 7.15593,4.00646 3.40706,3.40706 5.7889,4.59136 7.89173,3.92394 2.08628,-0.66216 4.50522,0.50387 7.87125,3.79427 3.07096,3.00195 6.46623,4.75019 9.22541,4.75019 3.05925,0 4.99124,1.16821 6.45488,3.90306 2.03446,3.80143 4.05808,4.65509 9.84537,4.15329 1.55094,-0.13449 5.02549,1.81681 7.72122,4.33619 3.81451,3.56497 5.87219,4.38653 9.27962,3.70505 2.40804,-0.48161 4.37826,-0.21776 4.37826,0.58633 0,3.39724 6.35763,8.09977 10.51369,7.77665 2.9741,-0.23124 5.66889,1.04386 8.65875,4.09707 2.75515,2.81352 5.60666,4.25282 7.80611,3.94012 2.19757,-0.31243 5.0746,1.13719 7.86424,3.96251 2.97267,3.01068 5.53045,4.23889 7.88877,3.78806 1.91942,-0.36692 4.35664,0.26079 5.41606,1.39489 3.19693,3.42233 -0.48902,7.7383 -8.28526,9.70141 -3.89217,0.98006 -7.07666,2.45632 -7.07666,3.28058 0,1.90068 -8.65577,6.45368 -9.9013,5.20815 -1.20336,-1.20336 -9.0158,3.87012 -11.65855,7.57119 -1.45225,2.03383 -3.16218,2.58281 -5.90259,1.89499 -2.98401,-0.74893 -4.87127,0.092 -8.33027,3.71141 -3.26516,3.41667 -5.50186,4.48289 -8.28724,3.95044 -2.87402,-0.54941 -4.83739,0.48571 -7.95988,4.19658 -3.0064,3.57289 -4.98561,4.65904 -7.20583,3.95438 -3.81881,-1.21206 -11.46825,3.55225 -10.3562,6.45016 0.60407,1.57417 -0.91524,2.1109 -5.97532,2.1109 -6.85144,0 -11.50807,3.01115 -9.55177,6.17651 0.60324,0.97607 -0.75162,1.67751 -3.37834,1.74906 -7.91856,0.21568 -10.08874,1.14703 -14.69508,6.30647 -3.34299,3.74439 -5.01281,4.63638 -6.28944,3.35975 -2.44547,-2.44547 -8.36842,0.50298 -10.52688,5.24029 -1.51006,3.31422 -2.41841,3.63982 -7.76772,2.78443 -5.7083,-0.9128 -6.1548,-0.69017 -7.74084,3.85956 -1.50968,4.33065 -2.17457,4.72996 -6.45157,3.87455 -5.24016,-1.04803 -10.10558,1.74537 -8.82997,5.06956 0.9891,2.57755 -3.90531,4.1458 -8.9709,2.87442 -3.28887,-0.82547 -4.33875,-0.18037 -6.49611,3.99151 -2.31906,4.48457 -3.08613,4.87987 -7.7656,4.00201 -5.58016,-1.04684 -10.18298,1.86499 -10.18298,6.44199 0,1.84355 -1.0859,2.20828 -4.52612,1.52024 -3.2688,-0.65376 -5.5457,-0.0109 -8.19642,2.31662 -2.01867,1.77202 -3.46474,3.9377 -3.2135,4.81261 0.25675,0.89414 -0.95496,1.22158 -2.767,0.74772 -3.67162,-0.96015 -12.35345,2.87341 -13.54611,5.98144 -0.43722,1.13939 -1.8168,1.67948 -3.06573,1.20023 -1.24893,-0.47926 -3.47407,0.13177 -4.94477,1.35792 -2.31086,1.92657 -10.49884,5.99471 -12.82194,6.37051 -0.42934,0.0695 -4.14865,2.11215 -8.26513,4.53931 -4.11648,2.42717 -8.07013,4.41303 -8.78587,4.41303 -0.71575,0 -2.04575,0.89694 -2.95556,1.9932 -0.90982,1.09626 -3.6304,2.14123 -6.04576,2.32216 -2.52712,0.18932 -6.093,2.2005 -8.39924,4.73724 -2.20424,2.42453 -4.86895,4.12116 -5.92159,3.77027 -3.65452,-1.21817 -9.08731,1.17984 -10.6638,4.70695 -1.25606,2.81022 -2.84867,3.5467 -7.66953,3.5467 -5.08207,0 -6.16488,0.56647 -6.57352,3.43894 -0.55756,3.91934 -6.30971,6.47928 -8.08919,3.60002 -1.96615,-3.18129 -7.0781,-1.07993 -6.66922,2.74149 0.44393,4.14894 -5.19438,7.87138 -7.86997,5.1958 -3.2253,-3.2253 -7.03974,-1.8808 -8.07822,2.84739 -1.34664,6.13119 -4.8808,7.19969 -8.01122,2.42207 z"
       id="path1111"
       transform="scale(0.26458333)" />
  </g>
</svg>
